<svg width="402" height="393" viewBox="0 0 402 393" fill="none" xmlns="http://www.w3.org/2000/svg">
<path d="M214.5 4.50006V56.5001V108.5L205.168 121.5L319.5 323L389.5 295.5L214.5 4.50006Z" fill="#22223B"/>
<path d="M106.817 258.5L72 307L115 381.5L319.5 323L106.817 258.5Z" fill="#F2E9E4"/>
<path d="M4.5 186L72 307L106.817 258.5L205.168 121.5L214.5 108.5V56.5001V4.50006L4.5 186Z" fill="#9A8C98"/>
<path d="M72 307L4.5 186L214.5 4.50006M72 307L106.817 258.5M72 307L115 381.5L319.5 323M214.5 4.50006L389.5 295.5L319.5 323M214.5 4.50006V56.5001V108.5L205.168 121.5M319.5 323L205.168 121.5M319.5 323L106.817 258.5M205.168 121.5L106.817 258.5" stroke="white" stroke-width="9" stroke-linejoin="round"/>
<rect x="206.5" y="216.5" width="195" height="176" rx="38" fill="#F2E9E4"/>
<path d="M279.244 317.487H252.071V300.349H279.244C283.443 300.349 286.861 299.665 289.498 298.298C292.135 296.882 294.063 294.929 295.284 292.439C296.505 289.948 297.115 287.141 297.115 284.016C297.115 280.842 296.505 277.888 295.284 275.153C294.063 272.419 292.135 270.222 289.498 268.562C286.861 266.901 283.443 266.071 279.244 266.071H259.688V355.5H237.716V248.859H279.244C287.594 248.859 294.747 250.373 300.704 253.4C306.71 256.379 311.3 260.505 314.474 265.778C317.647 271.052 319.234 277.082 319.234 283.869C319.234 290.754 317.647 296.711 314.474 301.74C311.3 306.77 306.71 310.651 300.704 313.386C294.747 316.12 287.594 317.487 279.244 317.487ZM354.171 293.537V355.5H333.077V276.252H352.926L354.171 293.537ZM378.048 275.739L377.682 295.295C376.656 295.148 375.411 295.026 373.946 294.929C372.53 294.782 371.236 294.709 370.064 294.709C367.086 294.709 364.498 295.1 362.301 295.881C360.152 296.613 358.346 297.712 356.881 299.177C355.465 300.642 354.391 302.424 353.658 304.523C352.975 306.623 352.584 309.016 352.486 311.701L348.238 310.383C348.238 305.256 348.751 300.544 349.776 296.247C350.802 291.901 352.291 288.117 354.244 284.895C356.246 281.672 358.688 279.182 361.568 277.424C364.449 275.666 367.745 274.787 371.456 274.787C372.628 274.787 373.824 274.885 375.045 275.08C376.266 275.227 377.267 275.446 378.048 275.739Z" fill="#22223B"/>
</svg>
